<?xml version="1.0" encoding="utf-8"?>
<!-- Generator: Adobe Illustrator 16.0.0, SVG Export Plug-In . SVG Version: 6.00 Build 0)  -->
<!DOCTYPE svg PUBLIC "-//W3C//DTD SVG 1.1//EN" "http://www.w3.org/Graphics/SVG/1.1/DTD/svg11.dtd">
<svg version="1.1" xmlns="http://www.w3.org/2000/svg" xmlns:xlink="http://www.w3.org/1999/xlink" x="0px" y="0px"
	 width="282.733px" height="38px" viewBox="148.47 -32.833 282.733 38" enable-background="new 148.47 -32.833 282.733 38"
	 xml:space="preserve">
<g id="_x31_0" display="none">
	<g display="inline">
		<path fill="#374149" d="M431.658,299.894c-2.379,2.192-10.861,8.904-25.775,16.548c-20.508,10.484-44.463,22.699-49.778,27.545
			c-4.145,3.729-9.365,11.467-13.702,21.623c-0.931,2.242-1.863,4.571-2.7,7.042c-0.794,2.233-1.538,4.566-2.145,6.989
			c-0.842,2.935-1.491,5.964-2.051,9.088c-1.026,5.969,2.611,11.697,8.434,13.188c34.162,8.721,76.528,13.894,122.441,13.894
			c45.861,0,88.18-5.173,122.296-13.843c5.873-1.491,9.51-7.271,8.438-13.24c-0.561-3.124-1.26-6.153-2.051-9.088
			c-0.654-2.423-1.354-4.756-2.191-6.989c-0.791-2.47-1.727-4.799-2.705-7.042c-4.285-10.156-9.506-17.847-13.654-21.623
			c-5.314-4.896-29.365-17.104-49.869-27.545c-14.963-7.69-23.4-14.355-25.823-16.548v-12.954v-7.13
			c1.118-0.423,2.192-1.214,3.218-2.333c0.184-0.184,0.371-0.372,0.513-0.607c2.842-3.213,5.173-6.849,6.337-10.249
			c0.141-0.418,0.281-0.842,0.422-1.26c2.563-7.272,4.52-15.471,4.893-17.804c0.033-0.175,0.047-0.312,0.067-0.457
			c0.009-0.038,0.029-0.111,0.038-0.15c1.068,0.325,2.09,0.466,2.97,0.466c10.813,0,15.24-22.14,15.847-27.962
			c0.653-5.871-4.568-9.878-6.478-11.421c0.417-0.931,0.931-2.329,1.443-3.96c0.048-0.094,0.095-0.235,0.142-0.372
			c0.649-2.004,1.581-4.708,2.422-8.481c0.514-2.242,0.979-4.896,1.396-8.02c0.278-1.91,0.326-3.96,0.236-5.964
			c-0.142-4.195-1.026-8.532-2.564-12.493c-1.26-3.447-3.029-6.617-5.174-9.181l-0.045-0.047c-1.492-1.769-3.172-3.588-4.944-5.22
			c-6.989-6.759-15.24-12.211-19.106-12.211c-7.832-14.074-17.85-23.208-36.402-24.468c-1.119-0.047-2.233-0.047-3.447-0.089h-0.235
			c-13.979,0-37.564,12.022-49.586,28.429c0,0.047,0,0.047,0,0.047c-1.214,1.632-2.286,3.307-3.218,4.985
			c-1.584,2.889-3.029,5.593-4.241,8.157c-1.958,4.148-3.449,8.015-4.379,11.881c-0.56,1.82-0.932,3.683-1.12,5.597
			c-0.794,5.405-0.654,11.139,0.419,18.035v0.047c0.419,2.845,0.978,5.921,1.726,9.228c0.046,0.047,0.046,0.094,0.046,0.142
			c0.56,1.632,1.026,3.03,1.538,3.96c-1.867,1.542-6.481,4.102-5.921,9.929c0.606,5.87,4.382,29.455,15.192,29.455
			c0.982,0,2.008-0.141,3.123-0.466c0.188,1.867,1.166,7.177,3.17,12.583c0.56,1.584,1.214,3.588,1.91,5.686
			c0.141,0.418,0.282,0.794,0.422,1.213c1.163,3.358,3.354,6.99,6.105,10.113c0.278,0.325,0.602,0.653,0.885,0.978
			c1.026,1.073,2.098,1.863,3.216,2.286v6.989v13.096H431.658z"/>
	</g>
</g>
<g id="_x31_0_copy" display="none">
	<g display="inline">
		<linearGradient id="SVGID_1_" gradientUnits="userSpaceOnUse" x1="468.8247" y1="489.1777" x2="468.8247" y2="67.7217">
			<stop  offset="0" style="stop-color:#FFFFFF"/>
			<stop  offset="1" style="stop-color:#000000"/>
		</linearGradient>
		<path fill="url(#SVGID_1_)" d="M292.489,489.178L435.684,67.721h65.656l143.82,421.457"/>
	</g>
	<g display="inline">
		<path fill="#FFFFFF" d="M433.541,367.227c-2.379,2.192-10.861,8.904-25.775,16.548c-20.508,10.484-44.463,22.699-49.778,27.545
			c-4.145,3.729-9.365,11.467-13.702,21.623c-0.931,2.242-1.863,4.571-2.7,7.042c-0.794,2.233-1.538,4.566-2.145,6.989
			c-0.842,2.935-1.491,56.063-2.051,59.187c-1.026,5.969,2.611,11.697,8.434,13.188c34.162,8.721,76.528,13.894,122.441,13.894
			c45.861,0,88.181-5.173,122.297-13.843c5.873-1.491,9.51-7.271,8.438-13.24c-0.561-3.124-1.26-56.252-2.051-59.187
			c-0.654-2.423-1.354-4.756-2.191-6.989c-0.791-2.47-1.727-4.799-2.705-7.042c-4.285-10.156-9.506-17.847-13.654-21.623
			c-5.314-4.896-29.365-17.104-49.869-27.545c-14.963-7.69-23.4-14.355-25.823-16.548v-12.954v-7.13
			c1.118-0.423,2.192-1.214,3.218-2.333c0.184-0.184,0.371-0.372,0.513-0.607c2.842-3.213,5.173-6.849,6.337-10.249
			c0.141-0.418,0.281-0.843,0.422-1.261c2.563-7.271,4.52-15.471,4.893-17.804c0.033-0.175,0.047-0.312,0.067-0.457
			c0.009-0.038,0.029-0.111,0.038-0.149c1.068,0.324,2.09,0.465,2.97,0.465c10.813,0,15.24-22.139,15.847-27.962
			c0.653-5.87-4.568-9.878-6.478-11.421c0.417-0.931,0.931-2.329,1.443-3.96c0.048-0.094,0.095-0.235,0.142-0.372
			c0.649-2.004,1.581-4.708,2.422-8.481c0.514-2.242,0.979-4.896,1.396-8.02c0.278-1.91,0.326-3.96,0.236-5.964
			c-0.142-4.195-1.026-8.532-2.564-12.493c-1.26-3.447-3.029-6.617-5.174-9.181l-0.045-0.047c-1.492-1.769-3.172-3.588-4.944-5.22
			c-6.989-6.759-15.24-12.211-19.106-12.211c-7.832-14.074-17.85-23.208-36.403-24.468c-1.119-0.047-2.233-0.047-3.447-0.089h-0.235
			c-13.979,0-37.564,12.022-49.586,28.429c0,0.047,0,0.047,0,0.047c-1.214,1.632-2.286,3.307-3.218,4.985
			c-1.584,2.889-3.029,5.593-4.241,8.157c-1.958,4.148-3.449,8.015-4.379,11.881c-0.56,1.82-0.932,3.683-1.12,5.597
			c-0.794,5.405-0.654,11.139,0.419,18.035v0.047c0.419,2.845,0.978,5.921,1.726,9.228c0.046,0.047,0.046,0.094,0.046,0.142
			c0.56,1.632,1.026,3.03,1.538,3.96c-1.867,1.542-6.481,4.102-5.921,9.93c0.606,5.869,4.382,29.454,15.192,29.454
			c0.982,0,2.008-0.142,3.123-0.466c0.188,1.867,1.166,7.177,3.17,12.582c0.56,1.585,1.214,3.589,1.91,5.687
			c0.141,0.418,0.282,0.794,0.422,1.213c1.163,3.358,3.354,6.99,6.105,10.113c0.278,0.325,0.602,0.653,0.885,0.978
			c1.026,1.073,2.098,1.863,3.216,2.286v6.989v13.096H433.541z"/>
	</g>
</g>
<g id="_x31_0_copy_2" display="none">
	<linearGradient id="SVGID_2_" gradientUnits="userSpaceOnUse" x1="468.6538" y1="163.5" x2="468.6538" y2="497.9741">
		<stop  offset="0" style="stop-color:#FFFFFF"/>
		<stop  offset="1" style="stop-color:#F57C00"/>
	</linearGradient>
	<path display="inline" fill="url(#SVGID_2_)" d="M404.26,163.5l-100.61,306.659c10.458,10.297,21.889,19.601,34.122,27.803
		c0.472-15.794,1.011-48.696,1.669-50.988c0.607-2.423,1.351-4.756,2.145-6.989c0.837-2.471,1.77-4.8,2.7-7.042
		c4.337-10.156,9.557-17.894,13.702-21.623c5.315-4.846,29.271-17.061,49.778-27.545c14.915-7.644,23.396-14.355,25.775-16.548
		h-0.004v-13.096v-6.989c-1.119-0.423-2.19-1.213-3.216-2.286c-0.284-0.324-0.607-0.652-0.885-0.978
		c-2.751-3.123-4.942-6.755-6.105-10.113c-0.14-0.419-0.281-0.795-0.422-1.213c-0.696-2.098-1.35-4.102-1.91-5.687
		c-2.004-5.405-2.981-10.715-3.17-12.582c-1.114,0.324-2.14,0.466-3.123,0.466c-10.81,0-14.586-23.585-15.192-29.454
		c-0.56-5.828,4.054-8.388,5.921-9.93c-0.512-0.931-0.978-2.329-1.538-3.96c0-0.048,0-0.095-0.046-0.142
		c-0.749-3.307-1.307-6.383-1.726-9.228v-0.047c-1.073-6.896-1.213-12.629-0.419-18.035c0.188-1.914,0.56-3.777,1.12-5.597
		c0.931-3.866,2.421-7.733,4.379-11.881c1.212-2.564,2.657-5.269,4.241-8.157c0.932-1.679,2.004-3.354,3.218-4.985c0,0,0,0,0-0.047
		c12.022-16.406,35.607-28.429,49.586-28.429h0.235c1.214,0.042,2.329,0.042,3.447,0.089c18.553,1.26,28.571,10.394,36.403,24.468
		c3.866,0,12.117,5.452,19.106,12.211c1.772,1.632,3.452,3.452,4.944,5.22l0.045,0.047c2.145,2.563,3.914,5.733,5.174,9.181
		c1.538,3.96,2.423,8.297,2.564,12.493c0.09,2.004,0.042,4.055-0.236,5.964c-0.418,3.124-0.883,5.777-1.396,8.02
		c-0.841,3.772-1.772,6.477-2.422,8.481c-0.047,0.137-0.094,0.278-0.142,0.372c-0.513,1.632-1.026,3.03-1.443,3.96
		c1.909,1.543,7.131,5.551,6.478,11.421c-0.606,5.823-5.034,27.962-15.847,27.962c-0.88,0-1.901-0.141-2.97-0.465
		c-0.009,0.038-0.029,0.111-0.038,0.149c-0.021,0.146-0.034,0.282-0.067,0.457c-0.373,2.333-2.329,10.532-4.893,17.804
		c-0.141,0.418-0.281,0.843-0.422,1.261c-1.164,3.4-3.495,7.036-6.337,10.249c-0.142,0.235-0.329,0.424-0.513,0.607
		c-1.025,1.119-2.1,1.91-3.218,2.333v7.13v12.954c2.423,2.192,10.86,8.857,25.823,16.548c20.504,10.441,44.555,22.648,49.869,27.545
		c4.148,3.776,9.369,11.467,13.654,21.623c0.979,2.243,1.914,4.572,2.705,7.042c0.838,2.233,1.537,4.566,2.191,6.989
		c0.618,2.292,1.18,35.213,1.663,51.001c12.594-8.439,24.341-18.043,35.048-28.698L532.9,163.5H404.26z"/>
	<g>
		<path display="inline" fill="#155987" d="M337.771,497.962l0.172-22.414c0.05-7.473,0.152-14.94,0.351-22.422
			c0.07-1.887,0.098-3.709,0.29-5.674c0.042-0.26,0.076-0.563,0.132-0.786l0.181-0.676l0.362-1.354
			c0.229-0.902,0.483-1.805,0.789-2.709c0.299-0.903,0.555-1.808,0.891-2.712l0.969-2.629l0.969-2.628l0.484-1.314l0.58-1.343
			l1.123-2.568l1.241-2.563c0.399-0.864,0.864-1.687,1.308-2.522c0.448-0.832,0.883-1.673,1.383-2.479
			c1.911-3.272,4.003-6.463,6.646-9.325l1.033-1.048c0.191-0.185,0.305-0.326,0.559-0.546l0.536-0.451
			c0.672-0.605,1.553-1.19,2.333-1.773c1.575-1.076,3.167-2.1,4.773-3.084c3.209-1.976,6.468-3.83,9.744-5.65
			c6.548-3.644,13.156-7.147,19.77-10.637l9.928-5.208l2.482-1.298l2.39-1.344l4.882-2.75l2.441-1.374
			c0.799-0.472,1.544-0.989,2.319-1.48l4.609-2.976c2.992-2.084,6.015-4.248,8.651-6.572l1.451,3.715l-0.004,0.001l-2.126,0.014
			l-0.015-2.155l-0.135-20.085l1.471,2.129c-0.981-0.404-1.89-0.915-2.621-1.52c-0.39-0.292-0.736-0.603-1.06-0.925l-0.249-0.238
			l-0.125-0.12l-0.181-0.195l-0.396-0.431l-0.396-0.432l-0.423-0.515l-0.74-0.907l-0.74-0.907c-0.247-0.297-0.488-0.692-0.731-1.035
			c-0.475-0.714-0.989-1.418-1.424-2.146l-1.214-2.212c-0.398-0.742-0.687-1.563-1.031-2.343c-0.354-0.806-0.604-1.572-0.853-2.271
			l-3.03-8.887c-0.264-0.714-0.448-1.572-0.673-2.353c-0.207-0.799-0.451-1.601-0.623-2.397l-0.507-2.39
			c-0.163-0.805-0.27-1.675-0.403-2.511l3.221,2.173l-1.875,0.421c-0.321,0.048-0.653,0.063-0.979,0.092l-0.492,0.036l-0.246,0.017
			l-0.123,0.009l-0.061,0.004l-0.031,0.002l-0.016,0.001l-0.188-0.007l-0.792-0.051l-0.2-0.014l-0.3-0.049l-0.599-0.111
			c-0.197-0.041-0.403-0.082-0.59-0.131l-0.504-0.171c-0.333-0.121-0.68-0.223-0.983-0.388c-1.29-0.57-2.354-1.398-3.285-2.268
			c-0.943-0.873-1.699-1.835-2.391-2.81c-0.692-0.977-1.266-1.986-1.809-3.002c-0.524-1.019-1.006-2.047-1.431-3.085
			c-0.438-1.036-0.815-2.081-1.177-3.129c-0.357-1.049-0.683-2.102-0.983-3.157c-0.597-2.113-1.106-4.237-1.531-6.373
			c-0.426-2.142-0.787-4.274-1.05-6.476l-0.048-0.417l-0.027-0.363l-0.009-0.198c-0.011-0.275-0.03-0.504-0.033-0.816
			c0.012-0.382,0.032-0.765,0.059-1.146c0.027-0.382,0.104-0.701,0.161-1.054c0.271-1.375,0.828-2.713,1.575-3.859
			c0.744-1.152,1.653-2.116,2.573-2.93c0.906-0.81,1.906-1.512,2.543-2.032l-0.655,3.427l-0.53-1.173
			c-0.159-0.376-0.377-0.822-0.48-1.146l-0.734-2.066l-0.149-0.892c-0.001,0.102,0.005,0.207,0.019,0.31l0.026,0.154l0.045,0.188
			c0.101,0.412,0.349,0.84,0.648,1.13l-0.717-1.317l-1.802-9.429l-0.029-0.15l-0.001-0.256l0-0.047l0.033,0.429l-0.434-3.306
			l-0.215-1.653c-0.059-0.555-0.08-1.119-0.121-1.677l-0.211-3.362l0.041-3.399c-0.026-1.132,0.139-2.269,0.238-3.404
			c0.109-1.133,0.217-2.293,0.387-3.328l0.235-1.598l0.44-1.806l0.427-1.66l0.427-1.556c0.245-1.007,0.673-2.155,1.036-3.246
			c0.358-1.13,0.808-2.116,1.214-3.173c0.398-1.054,0.888-2.041,1.333-3.062l0.341-0.76l0.125-0.269l0.093-0.179l0.186-0.358
			l0.742-1.433l2.97-5.73l0.186-0.358l0.193-0.349l0.103-0.173l0.414-0.693l0.827-1.386c0.619-0.954,1.321-1.941,1.984-2.905
			l-0.576,1.739v-0.047l-0.001-1.004l0.565-0.719l2.207-2.807c0.748-0.924,1.57-1.773,2.353-2.663
			c0.771-0.903,1.648-1.689,2.478-2.528l1.265-1.234l1.321-1.166c1.738-1.586,3.595-3.018,5.455-4.44l2.853-2.045l2.942-1.911
			c1.993-1.221,4.002-2.422,6.091-3.48l1.555-0.815l1.594-0.746c1.063-0.497,2.119-1.005,3.219-1.43
			c2.165-0.916,4.39-1.717,6.665-2.406c2.28-0.678,4.605-1.263,7.028-1.605l1.817-0.255l1.872-0.107l0.937-0.047
			c0.157-0.008,0.316-0.017,0.451-0.014l0.539,0.011l1.696,0.042l0.848,0.021l0.424,0.01l0.106,0.003l0.282,0.021l0.211,0.02
			l1.688,0.164c0.573,0.064,1.103,0.09,1.71,0.187l1.82,0.288c2.432,0.382,4.732,0.973,7.057,1.712
			c1.156,0.363,2.28,0.847,3.418,1.275c1.097,0.538,2.231,0.998,3.291,1.61c1.066,0.601,2.14,1.189,3.137,1.9
			c1.035,0.655,1.994,1.409,2.949,2.168c0.972,0.74,1.828,1.603,2.742,2.403c0.83,0.875,1.722,1.705,2.494,2.624
			c0.789,0.907,1.58,1.813,2.287,2.772c0.747,0.935,1.425,1.908,2.095,2.886c1.346,1.952,2.539,3.974,3.695,6.007l-2.568-1.51
			c1.317,0.041,2.355,0.313,3.278,0.623c0.931,0.313,1.765,0.683,2.573,1.072c1.602,0.787,3.064,1.673,4.484,2.602
			c2.828,1.865,5.436,3.934,7.938,6.125c1.236,1.106,2.471,2.235,3.631,3.41l1.705,1.698c0.571,0.61,1.146,1.275,1.717,1.912
			l0.856,0.966l0.054,0.061l0.026,0.03c-0.22-0.246-0.054-0.061-0.099-0.112l0.013,0.014l0.232,0.272l0.022,0.03l0.045,0.06
			l0.182,0.24l0.362,0.48c0.482,0.645,0.963,1.234,1.459,2.074c1.039,1.577,1.804,3.114,2.536,4.697l1.003,2.472l0.771,2.279
			c0.273,0.712,0.469,1.65,0.69,2.498c0.212,0.865,0.452,1.738,0.56,2.582l0.404,2.552l0.19,2.584l0.046,0.646l0.006,0.081
			l0.005,0.162l0.001,0.15l0.001,0.301l0.003,1.203l0.003,1.203c-0.012,0.421-0.066,0.904-0.101,1.353
			c-0.09,0.89-0.139,1.882-0.281,2.684l-0.373,2.377c-0.208,1.55-0.605,3.263-0.929,4.905l-0.063,0.31l-0.054,0.234l-0.039,0.146
			l-0.154,0.581l-0.31,1.163l-0.618,2.325c-0.183,0.765-0.483,1.582-0.727,2.372l-0.384,1.194l-0.193,0.597l-0.048,0.149
			l-0.137,0.37l-0.108,0.281l0.093-0.25l-1.574,4.255l-0.778-3.256c0.82,0.663,1.746,1.43,2.595,2.266
			c0.856,0.841,1.674,1.769,2.399,2.811c0.724,1.042,1.364,2.195,1.815,3.471c0.443,1.28,0.682,2.665,0.685,4.05l-0.056,1.033
			c-0.023,0.385-0.06,0.559-0.091,0.855c-0.079,0.595-0.161,1.149-0.252,1.697c-0.181,1.101-0.389,2.185-0.621,3.264
			c-0.461,2.158-1.016,4.292-1.667,6.411c-0.663,2.116-1.414,4.218-2.343,6.283c-0.941,2.061-2.008,4.104-3.452,6.028
			c-0.706,0.964-1.526,1.894-2.475,2.747c-0.934,0.858-2.04,1.633-3.305,2.197c-1.255,0.56-2.672,0.938-4.088,0.938l-0.133,0.007
			l-0.066,0.003l-0.032,0.001l-0.219-0.008l-0.199-0.017l-0.397-0.033l-0.797-0.065c-0.701-0.133-1.408-0.289-2.103-0.463
			l3.207-1.855l-0.039,0.149l0.04-0.217l-0.1,0.629l-0.104,0.495l-0.21,0.99c-0.139,0.659-0.271,1.315-0.456,2.002l-0.515,2.036
			c-0.177,0.674-0.334,1.368-0.527,2.023l-1.142,3.95c-0.356,1.321-0.846,2.617-1.262,3.926l-1.294,3.856l-0.85,2.017
			c-0.146,0.316-0.233,0.605-0.429,0.945l-0.556,1.002c-0.378,0.654-0.737,1.356-1.141,1.964l-1.232,1.77
			c-0.396,0.604-0.851,1.153-1.311,1.699l-1.366,1.647l0.25-0.34c-0.113,0.168-0.233,0.334-0.359,0.494
			c-0.14,0.186-0.219,0.255-0.317,0.36l-0.479,0.48l-0.428,0.422c-0.057,0.063-0.181,0.161-0.278,0.245l-0.312,0.258
			c-0.209,0.166-0.416,0.348-0.633,0.494l-0.658,0.418c-0.42,0.29-0.961,0.483-1.443,0.711l1.477-2.138l-0.136,20.084l-0.707-1.594
			c2.668,2.324,5.683,4.48,8.691,6.57l4.65,2.994c0.778,0.493,1.538,1.017,2.333,1.485l2.416,1.362l4.832,2.727l2.414,1.359
			l2.486,1.295l9.942,5.196c6.623,3.481,13.241,6.978,19.799,10.618c3.279,1.819,6.545,3.668,9.757,5.646
			c1.607,0.985,3.201,2.009,4.776,3.089c0.78,0.59,1.567,1.089,2.333,1.775l0.575,0.489l0.176,0.156l0.123,0.125l0.245,0.251
			l0.979,1.002c2.692,2.917,4.761,6.069,6.684,9.356c1.885,3.29,3.607,6.665,5.043,10.159c0.382,0.864,0.747,1.748,1.082,2.609
			c0.337,0.876,0.713,1.717,1.018,2.623l0.924,2.704l0.872,2.655c0.303,0.88,0.566,1.786,0.808,2.708l0.377,1.371l0.188,0.686
			l0.023,0.085l0.027,0.119l0.004,0.044l0.016,0.175l0.032,0.349c0.214,1.842,0.211,3.788,0.302,5.682
			c0.192,7.504,0.297,14.964,0.354,22.446l0.183,22.429l-0.966-22.41c-0.329-7.464-0.572-14.951-0.974-22.387
			c-0.139-1.837-0.162-3.636-0.43-5.505l-0.041-0.349l-0.02-0.174l-0.006-0.043c0.031,0.138,0.002,0.015,0.005,0.034l-0.024-0.083
			l-0.2-0.661l-0.399-1.322c-0.255-0.882-0.535-1.763-0.864-2.644l-0.946-2.647l-0.955-2.578c-0.312-0.859-0.722-1.718-1.078-2.576
			c-0.365-0.871-0.736-1.706-1.132-2.541c-1.494-3.386-3.266-6.64-5.177-9.784c-1.919-3.113-4.087-6.184-6.539-8.702l-1.005-0.977
			l-0.252-0.244l-0.126-0.122c0.027,0.029-0.064-0.05-0.092-0.069l-0.504-0.404c-0.638-0.552-1.447-1.043-2.17-1.562
			c-1.534-0.994-3.111-1.951-4.716-2.877c-3.208-1.853-6.487-3.62-9.775-5.372c-6.582-3.494-13.249-6.858-19.925-10.209
			l-10.03-5.004l-2.51-1.249l-2.499-1.344l-4.985-2.69l-2.493-1.347c-0.823-0.465-1.615-0.987-2.424-1.479l-4.826-3.003
			c-3.152-2.131-6.267-4.279-9.271-6.831l-0.7-0.595l-0.007-0.999l-0.136-20.084l-0.009-1.225l1.485-0.913
			c0.228-0.14,0.466-0.187,0.698-0.368l0.354-0.229c0.115-0.077,0.202-0.17,0.308-0.251l0.154-0.122
			c0.055-0.046,0.096-0.063,0.174-0.149l0.422-0.427l0.364-0.374c0.038-0.041,0.107-0.108,0.078-0.091c-0.006,0-0.006,0.005,0,0.013
			l0.25-0.341l1.195-1.487c0.405-0.491,0.806-0.985,1.14-1.52l1.063-1.564c0.336-0.521,0.575-1.034,0.873-1.546l0.432-0.767
			c0.149-0.241,0.263-0.604,0.396-0.9l0.709-1.72l1.23-3.837c0.384-1.269,0.836-2.507,1.164-3.798l1.055-3.843
			c0.181-0.643,0.311-1.267,0.469-1.901l0.455-1.894c0.161-0.619,0.287-1.287,0.418-1.95l0.195-0.993l0.1-0.496l0.053-0.372
			l0.019-0.13l0.021-0.087l0.037-0.149l0.584-2.331l2.623,0.476c0.344,0.063,0.676,0.144,1.013,0.245l0.797,0.06l0.397,0.029
			l0.199,0.015l0.013,0.001c0.046,0.002-0.354-0.013-0.182-0.007l0.018-0.002l0.033-0.003l0.066-0.007
			c0.723,0.002,1.405-0.204,2.086-0.506c1.361-0.608,2.652-1.865,3.743-3.363c1.108-1.493,2.023-3.252,2.832-5.069
			c0.806-1.826,1.477-3.749,2.07-5.701c0.585-1.957,1.087-3.954,1.498-5.965c0.209-1.005,0.394-2.015,0.55-3.018l0.206-1.465
			c0.022-0.232,0.075-0.585,0.071-0.733l0.027-0.562c-0.017-0.745-0.143-1.481-0.398-2.215c-0.266-0.732-0.67-1.455-1.164-2.157
			c-0.497-0.702-1.095-1.378-1.764-2.023c-0.675-0.653-1.395-1.244-2.235-1.912l-1.514-1.205l0.735-2.052l1.313-3.666l0.041-0.113
			l0.052-0.137l0.105-0.282l0.026-0.07l0.007-0.018c-0.167,0.448-0.043,0.114-0.079,0.21l0.011-0.035l0.043-0.137l0.173-0.549
			l0.346-1.098c0.222-0.744,0.482-1.434,0.667-2.232l0.6-2.33l0.3-1.165l0.149-0.583l0.037-0.146l0.01-0.036
			c0.02-0.079-0.021,0.087-0.016,0.064l0.003-0.018l0.014-0.07l0.054-0.279c0.277-1.509,0.615-2.923,0.823-4.556l0.354-2.38
			c0.072-0.422,0.093-0.721,0.117-1.076l0.086-1.027c0.024-0.351,0.074-0.665,0.083-1.045l-0.013-1.203l-0.013-1.203l-0.003-0.301
			l-0.002-0.15v-0.019c-0.002-0.081,0.002,0.088,0.001,0.065l-0.003-0.035l-0.006-0.069l-0.047-0.553l-0.179-2.213l-0.359-2.198
			c-0.094-0.751-0.295-1.424-0.462-2.117c-0.188-0.703-0.287-1.348-0.588-2.137l-0.777-2.277l-0.818-1.982
			c-0.616-1.324-1.298-2.659-2.027-3.762c-0.298-0.559-0.827-1.219-1.31-1.855l-0.363-0.479l-0.182-0.24l-0.045-0.06l-0.023-0.03
			c-0.048-0.058,0.384,0.453,0.195,0.23l-0.014-0.014l-0.207-0.23l-0.743-0.832c-0.501-0.556-0.972-1.109-1.495-1.669l-1.71-1.693
			c-1.097-1.106-2.234-2.138-3.391-3.169c-2.328-2.028-4.766-3.947-7.301-5.608c-1.266-0.824-2.556-1.594-3.837-2.218
			c-0.637-0.304-1.274-0.582-1.865-0.776c-0.594-0.211-1.134-0.292-1.422-0.315l-1.787-0.146l-0.781-1.363
			c-1.085-1.895-2.197-3.769-3.426-5.537c-0.611-0.887-1.227-1.769-1.896-2.598c-0.637-0.862-1.339-1.656-2.035-2.455
			c-0.683-0.814-1.461-1.519-2.184-2.288c-0.792-0.681-1.531-1.434-2.364-2.059c-0.818-0.645-1.637-1.29-2.519-1.84
			c-0.846-0.606-1.763-1.097-2.666-1.607c-0.898-0.521-1.874-0.901-2.804-1.364c-0.981-0.357-1.938-0.775-2.939-1.084
			c-1.985-0.626-4.08-1.156-6.118-1.468l-1.53-0.245c-0.508-0.084-1.11-0.116-1.661-0.177l-1.688-0.164l-0.211-0.021l-0.053-0.005
			l-0.026-0.002c0.343,0.023,0.08,0.006,0.149,0.011l-0.106-0.003l-0.424-0.012l-0.848-0.023l-1.695-0.046l-0.212-0.005
			l-0.106-0.003l-0.026-0.001c-0.034,0,0.2,0.004,0.088,0.002h-0.053c-0.147-0.003-0.271,0.005-0.396,0.013l-0.756,0.04
			l-1.515,0.078l-1.542,0.216c-2.057,0.281-4.134,0.795-6.188,1.4c-2.053,0.616-4.093,1.342-6.095,2.183
			c-1.013,0.386-1.995,0.858-2.983,1.316l-1.481,0.687l-1.451,0.757c-1.949,0.979-3.829,2.099-5.694,3.233l-2.752,1.776
			l-2.666,1.901c-1.732,1.32-3.468,2.647-5.074,4.109l-1.226,1.074l-1.165,1.132c-0.761,0.768-1.579,1.489-2.276,2.309
			c-0.711,0.807-1.471,1.581-2.146,2.414l-1.995,2.52l0.563-1.723v0.047l-0.001,0.893l-0.575,0.846
			c-0.551,0.812-1.109,1.571-1.667,2.417l-0.831,1.383l-0.415,0.692l-0.104,0.173l-0.026,0.043l-0.013,0.022
			c0.041-0.074-0.1,0.179,0.089-0.162l-0.006,0.011l-0.047,0.089l-0.187,0.358l-2.985,5.723l-0.746,1.431l-0.187,0.357l-0.093,0.179
			c-0.011,0.021,0.07-0.143,0.034-0.068l-0.005,0.011l-0.01,0.022l-0.02,0.044l-0.04,0.089l-0.321,0.711
			c-0.416,0.951-0.889,1.892-1.25,2.852c-0.367,0.95-0.813,1.926-1.101,2.85c-0.314,0.951-0.667,1.813-0.937,2.896l-0.431,1.555
			l-0.131,0.469l-0.082,0.332l-0.168,0.663l-0.352,1.323l-0.24,1.594c-0.186,1.088-0.276,2.071-0.381,3.079
			c-0.094,1.006-0.259,2.004-0.238,3.028l-0.064,3.054l0.171,3.081c0.034,0.514,0.046,1.027,0.096,1.542l0.191,1.548l0.378,3.097
			l0.034,0.277l0,0.152l0,0.047l-0.03-0.407l1.65,9.027l-0.717-1.317c0.325,0.334,0.598,0.807,0.724,1.263
			c0.039,0.137,0.035,0.146,0.052,0.226l0.029,0.191c0.016,0.129,0.024,0.258,0.025,0.386l-0.149-0.892l0.673,1.945
			c0.111,0.353,0.228,0.537,0.336,0.816l0.322,0.774l0.909,2.189l-1.564,1.238c-1.014,0.802-1.758,1.305-2.433,1.904
			c-0.667,0.581-1.217,1.175-1.627,1.798c-0.411,0.623-0.681,1.27-0.828,1.967c-0.022,0.17-0.081,0.367-0.086,0.513
			c-0.007,0.146-0.021,0.292-0.043,0.438c-0.003,0.216,0.017,0.515,0.024,0.769l0.008,0.198l0.004,0.099l0,0.013
			c0.01,0.147-0.014-0.188-0.011-0.149l0.002,0.023l0.005,0.047l0.04,0.371c0.222,2.001,0.549,4.046,0.933,6.058
			c0.384,2.017,0.847,4.014,1.384,5.977c0.537,1.964,1.17,3.885,1.913,5.728c0.368,0.923,0.779,1.814,1.215,2.68
			c0.448,0.853,0.915,1.69,1.442,2.443c0.525,0.751,1.081,1.466,1.691,2.032c0.604,0.573,1.236,1.067,1.889,1.351
			c0.158,0.1,0.328,0.131,0.49,0.196l0.244,0.093l0.185,0.037c0.06,0.014,0.119,0.03,0.178,0.05l0.088,0.032l0.195,0.015
			l0.792,0.058c0.16,0.005-0.204-0.007-0.163-0.006l0.009-0.001l0.019-0.002l0.038-0.003l0.075-0.007l0.149-0.013l0.299-0.021
			c0.2-0.018,0.398-0.016,0.6-0.043c0.407-0.095,0.813-0.183,1.224-0.261l2.797-0.535l0.424,2.708
			c0.11,0.706,0.177,1.389,0.315,2.115l0.436,2.196c0.147,0.731,0.354,1.426,0.525,2.142c0.2,0.72,0.314,1.399,0.58,2.156
			l2.895,8.879c0.263,0.776,0.489,1.498,0.765,2.122c0.283,0.647,0.493,1.316,0.826,1.952l1.013,1.906
			c0.356,0.615,0.763,1.176,1.137,1.771c0.204,0.297,0.352,0.583,0.599,0.89l0.728,0.917l0.728,0.917l0.313,0.395l0.39,0.437
			l0.39,0.437l0.276,0.271c0.226,0.234,0.457,0.446,0.693,0.623c0.464,0.405,0.941,0.643,1.39,0.859l1.481,0.714l-0.01,1.415
			l-0.135,20.085l-2.141-2.142l0.004,0.001l5.729,0.038l-4.277,3.677c-3.003,2.582-6.104,4.721-9.265,6.863l-4.857,3.021
			c-0.812,0.493-1.616,1.022-2.434,1.484l-2.466,1.329l-4.932,2.658l-2.521,1.354l-2.506,1.252l-10.015,5.017
			c-6.666,3.359-13.323,6.732-19.898,10.232c-3.283,1.755-6.562,3.52-9.767,5.373c-1.603,0.927-3.179,1.883-4.714,2.876
			c-0.725,0.521-1.433,0.933-2.168,1.559l-0.547,0.438c-0.103,0.08-0.303,0.287-0.45,0.425l-0.958,0.922
			c-2.502,2.567-4.627,5.608-6.556,8.73c-0.505,0.77-0.949,1.578-1.407,2.378c-0.453,0.802-0.929,1.596-1.335,2.418l-1.266,2.448
			l-1.187,2.535l-0.566,1.214l-0.519,1.302l-1.037,2.603l-1.037,2.604c-0.337,0.837-0.614,1.726-0.924,2.587
			c-0.317,0.858-0.592,1.747-0.847,2.649l-0.396,1.343l-0.198,0.672c-0.063,0.229-0.068,0.394-0.109,0.594
			c-0.215,1.747-0.306,3.663-0.419,5.506c-0.409,7.447-0.646,14.918-0.97,22.381L337.771,497.962z"/>
	</g>
	<path display="inline" fill="#155987" d="M431.396,367.227l-0.135-20.085l1.471,2.129c-0.981-0.404-1.89-0.915-2.621-1.52
		c-0.39-0.292-0.736-0.603-1.06-0.925l-0.249-0.238l-0.125-0.12l-0.181-0.195l-0.396-0.431l-0.396-0.432l-0.423-0.515l-0.74-0.907
		l-0.74-0.907c-0.247-0.297-0.488-0.692-0.731-1.035c-0.475-0.714-0.989-1.418-1.424-2.146l-1.214-2.212
		c-0.398-0.742-0.687-1.563-1.031-2.343c-0.354-0.806-0.604-1.572-0.853-2.271l-3.03-8.887c-0.264-0.714-0.448-1.572-0.673-2.353
		c-0.207-0.799-0.451-1.601-0.623-2.397l-0.507-2.39c-0.163-0.805-0.27-1.675-0.403-2.511l3.221,2.173l-1.875,0.421
		c-0.321,0.048-0.653,0.063-0.979,0.092l-0.492,0.036l-0.246,0.017l-0.123,0.009l-0.061,0.004l-0.031,0.002l-0.016,0.001
		l-0.188-0.007l-0.792-0.051l-0.2-0.014l-0.3-0.049l-0.599-0.111c-0.197-0.041-0.403-0.082-0.59-0.131l-0.504-0.171
		c-0.333-0.121-0.68-0.223-0.983-0.388c-1.29-0.57-2.354-1.398-3.285-2.268c-0.943-0.873-1.699-1.835-2.391-2.81
		c-0.692-0.977-1.266-1.986-1.809-3.002c-0.524-1.019-1.006-2.047-1.431-3.085c-0.438-1.036-0.815-2.081-1.177-3.129
		c-0.357-1.049-0.683-2.102-0.983-3.157c-0.597-2.113-1.106-4.237-1.531-6.373c-0.426-2.142-0.787-4.274-1.05-6.476l-0.048-0.417
		l-0.027-0.363l-0.009-0.198c-0.011-0.275-0.03-0.504-0.033-0.816c0.012-0.382,0.032-0.765,0.059-1.146
		c0.027-0.382,0.104-0.701,0.161-1.054c0.271-1.375,0.828-2.713,1.575-3.859c0.744-1.152,1.653-2.116,2.573-2.93
		c0.906-0.81,1.906-1.512,2.543-2.032l-0.655,3.427l-0.53-1.173c-0.159-0.376-0.377-0.822-0.48-1.146l-0.734-2.066l-0.149-0.892
		c-0.001,0.102,0.005,0.207,0.019,0.31l0.026,0.154l0.045,0.188c0.101,0.412,0.349,0.84,0.648,1.13l-0.717-1.317l-1.802-9.429
		l-0.029-0.15l-0.001-0.256l0-0.047l0.033,0.429l-0.434-3.306l-0.215-1.653c-0.059-0.555-0.08-1.119-0.121-1.677l-0.211-3.362
		l0.041-3.399c-0.026-1.132,0.139-2.269,0.238-3.404c0.109-1.133,0.217-2.293,0.387-3.328l0.235-1.598l0.44-1.806l0.427-1.66
		l0.427-1.556c0.245-1.007,0.673-2.155,1.036-3.246c0.358-1.13,0.808-2.116,1.214-3.173c0.398-1.054,0.888-2.041,1.333-3.062
		l0.341-0.76l0.125-0.269l0.093-0.179l0.186-0.358l0.742-1.433l2.97-5.73l0.186-0.358l0.193-0.349l0.103-0.173l0.414-0.693
		l0.827-1.386c0.619-0.954,1.321-1.941,1.984-2.905l-0.576,1.739v-0.047l-0.001-1.004l0.565-0.719l2.207-2.807
		c0.748-0.924,1.57-1.773,2.353-2.663c0.771-0.903,1.648-1.689,2.478-2.528l1.265-1.234l1.321-1.166
		c1.738-1.586,3.595-3.018,5.455-4.44l2.853-2.045l2.942-1.911c1.993-1.221,4.002-2.422,6.091-3.48l1.555-0.815l1.594-0.746
		c1.063-0.497,2.119-1.005,3.219-1.43c2.165-0.916,4.39-1.717,6.665-2.406c2.28-0.678,4.605-1.263,7.028-1.605l1.817-0.255
		l1.872-0.107l0.937-0.047c0.157-0.008,0.316-0.017,0.451-0.014l0.539,0.011l1.696,0.042l0.848,0.021l0.424,0.01l0.106,0.003
		l0.282,0.021l0.211,0.02l1.688,0.164c0.573,0.064,1.103,0.09,1.71,0.187l1.82,0.288c2.432,0.382,4.732,0.973,7.057,1.712
		c1.156,0.363,2.28,0.847,3.418,1.275c1.097,0.538,2.231,0.998,3.291,1.61c1.066,0.601,2.14,1.189,3.137,1.9
		c1.035,0.655,1.994,1.409,2.949,2.168c0.972,0.74,1.828,1.603,2.742,2.403c0.83,0.875,1.722,1.705,2.494,2.624
		c0.789,0.907,1.58,1.813,2.287,2.772c0.747,0.935,1.425,1.908,2.095,2.886c1.346,1.952,2.539,3.974,3.695,6.007l-2.568-1.51
		c1.317,0.041,2.355,0.313,3.278,0.623c0.931,0.313,1.765,0.683,2.573,1.072c1.602,0.787,3.064,1.673,4.484,2.602
		c2.828,1.865,5.436,3.934,7.938,6.125c1.236,1.106,2.471,2.235,3.631,3.41l1.705,1.698c0.571,0.61,1.146,1.275,1.717,1.912
		l0.856,0.966l0.054,0.061l0.026,0.03c-0.22-0.246-0.054-0.061-0.099-0.112l0.013,0.014l0.232,0.272l0.022,0.03l0.045,0.06
		l0.182,0.24l0.362,0.48c0.482,0.645,0.963,1.234,1.459,2.074c1.039,1.577,1.804,3.114,2.536,4.697l1.003,2.472l0.771,2.279
		c0.273,0.712,0.469,1.65,0.69,2.498c0.212,0.865,0.452,1.738,0.56,2.582l0.404,2.552l0.19,2.584l0.046,0.646l0.006,0.081
		l0.005,0.162l0.001,0.15l0.001,0.301l0.003,1.203l0.003,1.203c-0.012,0.421-0.066,0.904-0.101,1.353
		c-0.09,0.89-0.139,1.882-0.281,2.684l-0.373,2.377c-0.208,1.55-0.605,3.263-0.929,4.905l-0.063,0.31l-0.054,0.234l-0.039,0.146
		l-0.154,0.581l-0.31,1.163l-0.618,2.325c-0.183,0.765-0.483,1.582-0.727,2.372l-0.384,1.194l-0.193,0.597l-0.048,0.149l-0.137,0.37
		l-0.108,0.281l0.093-0.25l-1.574,4.255l-0.778-3.256c0.82,0.663,1.746,1.43,2.595,2.266c0.856,0.841,1.674,1.769,2.399,2.811
		c0.724,1.042,1.364,2.195,1.815,3.471c0.443,1.28,0.682,2.665,0.685,4.05l-0.056,1.033c-0.023,0.385-0.06,0.559-0.091,0.855
		c-0.079,0.595-0.161,1.149-0.252,1.697c-0.181,1.101-0.389,2.185-0.621,3.264c-0.461,2.158-1.016,4.292-1.667,6.411
		c-0.663,2.116-1.414,4.218-2.343,6.283c-0.941,2.061-2.008,4.104-3.452,6.028c-0.706,0.964-1.526,1.894-2.475,2.747
		c-0.934,0.858-2.04,1.633-3.305,2.197c-1.255,0.56-2.672,0.938-4.088,0.938l-0.133,0.007l-0.066,0.003l-0.032,0.001l-0.219-0.008
		l-0.199-0.017l-0.397-0.033l-0.797-0.065c-0.701-0.133-1.408-0.289-2.103-0.463l3.207-1.855l-0.039,0.149l0.04-0.217l-0.1,0.629
		l-0.104,0.495l-0.21,0.99c-0.139,0.659-0.271,1.315-0.456,2.002l-0.515,2.036c-0.177,0.674-0.334,1.368-0.527,2.023l-1.142,3.95
		c-0.356,1.321-0.846,2.617-1.262,3.926l-1.294,3.856l-0.85,2.017c-0.146,0.316-0.233,0.605-0.429,0.945l-0.556,1.002
		c-0.378,0.654-0.737,1.356-1.141,1.964l-1.232,1.77c-0.396,0.604-0.851,1.153-1.311,1.699l-1.366,1.647l0.25-0.34
		c-0.113,0.168-0.233,0.334-0.359,0.494c-0.14,0.186-0.219,0.255-0.317,0.36l-0.479,0.48l-0.428,0.422
		c-0.057,0.063-0.181,0.161-0.278,0.245l-0.312,0.258c-0.209,0.166-0.416,0.348-0.633,0.494l-0.658,0.418
		c-0.42,0.29-0.961,0.483-1.443,0.711l1.477-2.138l-0.136,20.084l-0.707-1.594c2.668,2.324,5.683,4.48,8.691,6.57l4.65,2.994
		c0.778,0.493,1.538,1.017,2.333,1.485l2.416,1.362l4.832,2.727l2.414,1.359l2.486,1.295l9.942,5.196
		c6.623,3.481,13.241,6.978,19.799,10.618c3.279,1.819,6.545,3.668,9.757,5.646c1.607,0.985,3.201,2.009,4.776,3.089
		c0.78,0.59,1.567,1.089,2.333,1.775l0.575,0.489l0.176,0.156l0.123,0.125l0.245,0.251l0.979,1.002
		c2.692,2.917,4.761,6.069,6.684,9.356c1.885,3.29,3.607,6.665,5.043,10.159c0.382,0.864,0.747,1.748,1.082,2.609
		c0.337,0.876,0.713,1.717,1.018,2.623l0.924,2.704l0.872,2.655c0.303,0.88,0.566,1.786,0.808,2.708l0.377,1.371l0.188,0.686
		l0.023,0.085l0.027,0.119l0.004,0.044l0.016,0.175l0.032,0.349c0.214,1.842,0.211,3.788,0.302,5.682
		c0.192,7.504,0.297,14.964,0.354,22.446l0.183,22.429l-0.966-22.41c-0.329-7.464-0.572-14.951-0.974-22.387
		c-0.139-1.837-0.162-3.636-0.43-5.505l-0.041-0.349l-0.02-0.174l-0.006-0.043c0.031,0.138,0.002,0.015,0.005,0.034l-0.024-0.083
		l-0.2-0.661l-0.399-1.322c-0.255-0.882-0.535-1.763-0.864-2.644l-0.946-2.647l-0.955-2.578c-0.312-0.859-0.722-1.718-1.078-2.576
		c-0.365-0.871-0.736-1.706-1.132-2.541c-1.494-3.386-3.266-6.64-5.177-9.784c-1.919-3.113-4.087-6.184-6.539-8.702l-1.005-0.977
		l-0.252-0.244l-0.126-0.122c0.027,0.029-0.064-0.05-0.092-0.069l-0.504-0.404c-0.638-0.552-1.447-1.043-2.17-1.562
		c-1.534-0.994-3.111-1.951-4.716-2.877c-3.208-1.853-6.487-3.62-9.775-5.372c-6.582-3.494-13.249-6.858-19.925-10.209l-10.03-5.004
		l-2.51-1.249l-2.499-1.344l-4.985-2.69l-2.493-1.347c-0.823-0.465-1.615-0.987-2.424-1.479l-4.826-3.003
		c-3.152-2.131-6.267-4.279-9.271-6.831l-0.7-0.595l-0.007-0.999l-0.136-20.084l-0.009-1.225l1.485-0.913
		c0.228-0.14,0.466-0.187,0.698-0.368l0.354-0.229c0.115-0.077,0.202-0.17,0.308-0.251l0.154-0.122
		c0.055-0.046,0.096-0.063,0.174-0.149l0.422-0.427l0.364-0.374c0.038-0.041,0.107-0.108,0.078-0.091c-0.006,0-0.006,0.005,0,0.013
		l0.25-0.341l1.195-1.487c0.405-0.491,0.806-0.985,1.14-1.52l1.063-1.564c0.336-0.521,0.575-1.034,0.873-1.546l0.432-0.767
		c0.149-0.241,0.263-0.604,0.396-0.9l0.709-1.72l1.23-3.837c0.384-1.269,0.836-2.507,1.164-3.798l1.055-3.843
		c0.181-0.643,0.311-1.267,0.469-1.901l0.455-1.894c0.161-0.619,0.287-1.287,0.418-1.95l0.195-0.993l0.1-0.496l0.053-0.372
		l0.019-0.13l0.021-0.087l0.037-0.149l0.584-2.331l2.623,0.476c0.344,0.063,0.676,0.144,1.013,0.245l0.797,0.06l0.397,0.029
		l0.199,0.015l0.013,0.001c0.046,0.002-0.354-0.013-0.182-0.007l0.018-0.002l0.033-0.003l0.066-0.007
		c0.723,0.002,1.405-0.204,2.086-0.506c1.361-0.608,2.652-1.865,3.743-3.363c1.108-1.493,2.023-3.252,2.832-5.069
		c0.806-1.826,1.477-3.749,2.07-5.701c0.585-1.957,1.087-3.954,1.498-5.965c0.209-1.005,0.394-2.015,0.55-3.018l0.206-1.465
		c0.022-0.232,0.075-0.585,0.071-0.733l0.027-0.562c-0.017-0.745-0.143-1.481-0.398-2.215c-0.266-0.732-0.67-1.455-1.164-2.157
		c-0.497-0.702-1.095-1.378-1.764-2.023c-0.675-0.653-1.395-1.244-2.235-1.912l-1.514-1.205l0.735-2.052l1.313-3.666l0.041-0.113
		l0.052-0.137l0.105-0.282l0.026-0.07l0.007-0.018c-0.167,0.448-0.043,0.114-0.079,0.21l0.011-0.035l0.043-0.137l0.173-0.549
		l0.346-1.098c0.222-0.744,0.482-1.434,0.667-2.232l0.6-2.33l0.3-1.165l0.149-0.583l0.037-0.146l0.01-0.036
		c0.02-0.079-0.021,0.087-0.016,0.064l0.003-0.018l0.014-0.07l0.054-0.279c0.277-1.509,0.615-2.923,0.823-4.556l0.354-2.38
		c0.072-0.422,0.093-0.721,0.117-1.076l0.086-1.027c0.024-0.351,0.074-0.665,0.083-1.045l-0.013-1.203l-0.013-1.203l-0.003-0.301
		l-0.002-0.15v-0.019c-0.002-0.081,0.002,0.088,0.001,0.065l-0.003-0.035l-0.006-0.069l-0.047-0.553l-0.179-2.213l-0.359-2.198
		c-0.094-0.751-0.295-1.424-0.462-2.117c-0.188-0.703-0.287-1.348-0.588-2.137l-0.777-2.277l-0.818-1.982
		c-0.616-1.324-1.298-2.659-2.027-3.762c-0.298-0.559-0.827-1.219-1.31-1.855l-0.363-0.479l-0.182-0.24l-0.045-0.06l-0.023-0.03
		c-0.048-0.058,0.384,0.453,0.195,0.23l-0.014-0.014l-0.207-0.23l-0.743-0.832c-0.501-0.556-0.972-1.109-1.495-1.669l-1.71-1.693
		c-1.097-1.106-2.234-2.138-3.391-3.169c-2.328-2.028-4.766-3.947-7.301-5.608c-1.266-0.824-2.556-1.594-3.837-2.218
		c-0.637-0.304-1.274-0.582-1.865-0.776c-0.594-0.211-1.134-0.292-1.422-0.315l-1.787-0.146l-0.781-1.363
		c-1.085-1.895-2.197-3.769-3.426-5.537c-0.611-0.887-1.227-1.769-1.896-2.598c-0.637-0.862-1.339-1.656-2.035-2.455
		c-0.683-0.814-1.461-1.519-2.184-2.288c-0.792-0.681-1.531-1.434-2.364-2.059c-0.818-0.645-1.637-1.29-2.519-1.84
		c-0.846-0.606-1.763-1.097-2.666-1.607c-0.898-0.521-1.874-0.901-2.804-1.364c-0.981-0.357-1.938-0.775-2.939-1.084
		c-1.985-0.626-4.08-1.156-6.118-1.468l-1.53-0.245c-0.508-0.084-1.11-0.116-1.661-0.177l-1.688-0.164l-0.211-0.021l-0.053-0.005
		l-0.026-0.002c0.343,0.023,0.08,0.006,0.149,0.011l-0.106-0.003l-0.424-0.012l-0.848-0.023l-1.695-0.046l-0.212-0.005l-0.106-0.003
		l-0.026-0.001c-0.034,0,0.2,0.004,0.088,0.002h-0.053c-0.147-0.003-0.271,0.005-0.396,0.013l-0.756,0.04l-1.515,0.078l-1.542,0.216
		c-2.057,0.281-4.134,0.795-6.188,1.4c-2.053,0.616-4.093,1.342-6.095,2.183c-1.013,0.386-1.995,0.858-2.983,1.316l-1.481,0.687
		l-1.451,0.757c-1.949,0.979-3.829,2.099-5.694,3.233l-2.752,1.776l-2.666,1.901c-1.732,1.32-3.468,2.647-5.074,4.109l-1.226,1.074
		l-1.165,1.132c-0.761,0.768-1.579,1.489-2.276,2.309c-0.711,0.807-1.471,1.581-2.146,2.414l-1.995,2.52l0.563-1.723v0.047
		l-0.001,0.893l-0.575,0.846c-0.551,0.812-1.109,1.571-1.667,2.417l-0.831,1.383l-0.415,0.692l-0.104,0.173l-0.026,0.043
		l-0.013,0.022c0.041-0.074-0.1,0.179,0.089-0.162l-0.006,0.011l-0.047,0.089l-0.187,0.358l-2.985,5.723l-0.746,1.431l-0.187,0.357
		l-0.093,0.179c-0.011,0.021,0.07-0.143,0.034-0.068l-0.005,0.011l-0.01,0.022l-0.02,0.044l-0.04,0.089l-0.321,0.711
		c-0.416,0.951-0.889,1.892-1.25,2.852c-0.367,0.95-0.813,1.926-1.101,2.85c-0.314,0.951-0.667,1.813-0.937,2.896l-0.431,1.555
		l-0.131,0.469l-0.082,0.332l-0.168,0.663l-0.352,1.323l-0.24,1.594c-0.186,1.088-0.276,2.071-0.381,3.079
		c-0.094,1.006-0.259,2.004-0.238,3.028l-0.064,3.054l0.171,3.081c0.034,0.514,0.046,1.027,0.096,1.542l0.191,1.548l0.378,3.097
		l0.034,0.277l0,0.152l0,0.047l-0.03-0.407l1.65,9.027l-0.717-1.317c0.325,0.334,0.598,0.807,0.724,1.263
		c0.039,0.137,0.035,0.146,0.052,0.226l0.029,0.191c0.016,0.129,0.024,0.258,0.025,0.386l-0.149-0.892l0.673,1.945
		c0.111,0.353,0.228,0.537,0.336,0.816l0.322,0.774l0.909,2.189l-1.564,1.238c-1.014,0.802-1.758,1.305-2.433,1.904
		c-0.667,0.581-1.217,1.175-1.627,1.798c-0.411,0.623-0.681,1.27-0.828,1.967c-0.022,0.17-0.081,0.367-0.086,0.513
		c-0.007,0.146-0.021,0.292-0.043,0.438c-0.003,0.216,0.017,0.515,0.024,0.769l0.008,0.198l0.004,0.099l0,0.013
		c0.01,0.147-0.014-0.188-0.011-0.149l0.002,0.023l0.005,0.047l0.04,0.371c0.222,2.001,0.549,4.046,0.933,6.058
		c0.384,2.017,0.847,4.014,1.384,5.977c0.537,1.964,1.17,3.885,1.913,5.728c0.368,0.923,0.779,1.814,1.215,2.68
		c0.448,0.853,0.915,1.69,1.442,2.443c0.525,0.751,1.081,1.466,1.691,2.032c0.604,0.573,1.236,1.067,1.889,1.351
		c0.158,0.1,0.328,0.131,0.49,0.196l0.244,0.093l0.185,0.037c0.06,0.014,0.119,0.03,0.178,0.05l0.088,0.032l0.195,0.015l0.792,0.058
		c0.16,0.005-0.204-0.007-0.163-0.006l0.009-0.001l0.019-0.002l0.038-0.003l0.075-0.007l0.149-0.013l0.299-0.021
		c0.2-0.018,0.398-0.016,0.6-0.043c0.407-0.095,0.813-0.183,1.224-0.261l2.797-0.535l0.424,2.708
		c0.11,0.706,0.177,1.389,0.315,2.115l0.436,2.196c0.147,0.731,0.354,1.426,0.525,2.142c0.2,0.72,0.314,1.399,0.58,2.156
		l2.895,8.879c0.263,0.776,0.489,1.498,0.765,2.122c0.283,0.647,0.493,1.316,0.826,1.952l1.013,1.906
		c0.356,0.615,0.763,1.176,1.137,1.771c0.204,0.297,0.352,0.583,0.599,0.89l0.728,0.917l0.728,0.917l0.313,0.395l0.39,0.437
		l0.39,0.437l0.276,0.271c0.226,0.234,0.457,0.446,0.693,0.623c0.464,0.405,0.941,0.643,1.39,0.859l1.481,0.714l-0.01,1.415
		l-0.125,20.983l-2.151-3.04l0.004,0.001l2.146,3.039l-0.695,0.676c-3.003,2.582-6.104,4.721-9.265,6.863l-4.857,3.021
		c-0.812,0.493-1.616,1.022-2.434,1.484l-2.466,1.329l-4.932,2.658l-2.521,1.354l-2.506,1.252l-10.015,5.017
		c-6.666,3.359-13.323,6.732-19.898,10.232c-3.283,1.755-6.562,3.52-9.767,5.373c-1.603,0.927-3.179,1.883-4.714,2.876
		c-0.725,0.521-1.433,0.933-2.168,1.559l-0.547,0.438c-0.103,0.08-0.303,0.287-0.45,0.425l-0.958,0.922
		c-2.502,2.567-4.627,5.608-6.556,8.73c-0.505,0.77-0.949,1.578-1.407,2.378c-0.453,0.802-0.929,1.596-1.335,2.418l-1.266,2.448
		l-1.187,2.535l-0.566,1.214l-0.519,1.302l-1.037,2.603l-1.037,2.604c-0.337,0.837-0.614,1.726-0.924,2.587
		c-0.317,0.858-0.592,1.747-0.847,2.649l-0.396,1.343l-0.198,0.672c-0.063,0.229-0.068,0.394-0.109,0.594
		c-0.215,1.747-0.306,3.663-0.419,5.506c-0.409,7.447-0.646,14.918-0.97,22.381l-0.949,22.395l0.172-22.414
		c0.05-7.473,0.152-14.94,0.351-22.422c0.07-1.887,0.098-3.709,0.29-5.674c0.042-0.26,0.076-0.563,0.132-0.786l0.181-0.676
		l0.362-1.354c0.229-0.902,0.483-1.805,0.789-2.709c0.299-0.903,0.555-1.808,0.891-2.712l0.969-2.629l0.969-2.628l0.484-1.314
		l0.58-1.343l1.123-2.568l1.241-2.563c0.399-0.864,0.864-1.687,1.308-2.522c0.448-0.832,0.883-1.673,1.383-2.479
		c1.911-3.272,4.003-6.463,6.646-9.325l1.033-1.048c0.191-0.185,0.305-0.326,0.559-0.546l0.536-0.451
		c0.672-0.605,1.553-1.19,2.333-1.773c1.575-1.076,3.167-2.1,4.773-3.084c3.209-1.976,6.468-3.83,9.744-5.65
		c6.548-3.644,13.156-7.147,19.77-10.637l9.928-5.208l2.482-1.298l2.39-1.344l4.882-2.75l2.441-1.374
		c0.799-0.472,1.544-0.989,2.319-1.48l4.609-2.976c2.992-2.084,5.314-3.642,7.951-5.966"/>
	<linearGradient id="SVGID_3_" gradientUnits="userSpaceOnUse" x1="468.6548" y1="504.1777" x2="468.6548" y2="68.4233">
		<stop  offset="0" style="stop-color:#FFFFFF"/>
		<stop  offset="1" style="stop-color:#000000"/>
	</linearGradient>
	<path fill="url(#SVGID_3_)" d="M434.667,70.819l-131.018,399.34c13.191,12.987,27.908,24.426,43.863,34.019h241.378
		c16.319-9.812,31.349-21.548,44.769-34.902L502.391,70.911c-11.162-1.63-22.575-2.488-34.189-2.488
		C456.814,68.423,445.621,69.251,434.667,70.819z"/>
	<path fill="#FFFFFF" d="M433.541,367.227c-2.379,2.192-10.861,8.904-25.775,16.548c-20.508,10.484-44.463,22.699-49.778,27.545
		c-4.145,3.729-9.365,11.467-13.702,21.623c-0.931,2.242-1.863,4.571-2.7,7.042c-0.794,2.233-1.538,4.566-2.145,6.989
		c-0.842,2.935-1.491,56.063-2.051,59.187c-1.026,5.969,2.611,11.697,8.434,13.188c34.162,8.721,76.528,13.894,122.441,13.894
		c45.861,0,88.181-5.173,122.297-13.843c5.873-1.491,9.51-7.271,8.438-13.24c-0.561-3.124-1.26-56.252-2.051-59.187
		c-0.654-2.423-1.354-4.756-2.191-6.989c-0.791-2.47-1.727-4.799-2.705-7.042c-4.285-10.156-9.506-17.847-13.654-21.623
		c-5.314-4.896-29.365-17.104-49.869-27.545c-14.963-7.69-23.4-14.355-25.823-16.548v-12.954v-7.13
		c1.118-0.423,2.192-1.214,3.218-2.333c0.184-0.184,0.371-0.372,0.513-0.607c2.842-3.213,5.173-6.849,6.337-10.249
		c0.141-0.418,0.281-0.843,0.422-1.261c2.563-7.271,4.52-15.471,4.893-17.804c0.033-0.175,0.047-0.312,0.067-0.457
		c0.009-0.038,0.029-0.111,0.038-0.149c1.068,0.324,2.09,0.465,2.97,0.465c10.813,0,15.24-22.139,15.847-27.962
		c0.653-5.87-4.568-9.878-6.478-11.421c0.417-0.931,0.931-2.329,1.443-3.96c0.048-0.094,0.095-0.235,0.142-0.372
		c0.649-2.004,1.581-4.708,2.422-8.481c0.514-2.242,0.979-4.896,1.396-8.02c0.278-1.91,0.326-3.96,0.236-5.964
		c-0.142-4.195-1.026-8.532-2.564-12.493c-1.26-3.447-3.029-6.617-5.174-9.181l-0.045-0.047c-1.492-1.769-3.172-3.588-4.944-5.22
		c-6.989-6.759-15.24-12.211-19.106-12.211c-7.832-14.074-17.85-23.208-36.403-24.468c-1.119-0.047-2.233-0.047-3.447-0.089h-0.235
		c-13.979,0-37.564,12.022-49.586,28.429c0,0.047,0,0.047,0,0.047c-1.214,1.632-2.286,3.307-3.218,4.985
		c-1.584,2.889-3.029,5.593-4.241,8.157c-1.958,4.148-3.449,8.015-4.379,11.881c-0.56,1.82-0.932,3.683-1.12,5.597
		c-0.794,5.405-0.654,11.139,0.419,18.035v0.047c0.419,2.845,0.978,5.921,1.726,9.228c0.046,0.047,0.046,0.094,0.046,0.142
		c0.56,1.632,1.026,3.03,1.538,3.96c-1.867,1.542-6.481,4.102-5.921,9.93c0.606,5.869,4.382,29.454,15.192,29.454
		c0.982,0,2.008-0.142,3.123-0.466c0.188,1.867,1.166,7.177,3.17,12.582c0.56,1.585,1.214,3.589,1.91,5.687
		c0.141,0.418,0.282,0.794,0.422,1.213c1.163,3.358,3.354,6.99,6.105,10.113c0.278,0.325,0.602,0.653,0.885,0.978
		c1.026,1.073,2.098,1.863,3.216,2.286v6.989v13.096H433.541z"/>
	<circle display="inline" fill="none" cx="468.202" cy="303" r="234.577"/>
	<g>
	</g>
	<circle display="inline" fill="none" cx="468.202" cy="303" r="234.577"/>
	<g>
	</g>
	
		<text transform="matrix(1 0 0 1 272.499 153.6426)" display="inline" fill="#155987" font-family="'VollkornSC-Regular'" font-size="63.2724">CANDIDATUS</text>
	
		<line display="inline" fill="none" stroke="#F57C00" stroke-width="2" stroke-miterlimit="10" x1="272.499" y1="159.167" x2="672.5" y2="159.167"/>
</g>
<g id="Layer_4">
	<g>
		<text transform="matrix(1 0 0 1 148.4722 -0.8564)" fill="#155987" font-family="'VollkornSC-Regular'" font-size="44.7229">CANDIDATUS</text>
		<line fill="none" stroke="#F57C00" stroke-width="2" stroke-miterlimit="10" x1="148.47" y1="3.051" x2="431.204" y2="3.051"/>
	</g>
</g>
</svg>
